<svg width="16" height="16" viewBox="0 0 16 16" fill="none" xmlns="http://www.w3.org/2000/svg">
<path d="M12.4286 1.71429C13.4543 1.71429 14.2858 2.54576 14.2858 3.57143V12.4286C14.2858 13.4542 13.4543 14.2857 12.4286 14.2857H3.5715C2.54583 14.2857 1.71436 13.4542 1.71436 12.4286V3.57143C1.71436 2.54576 2.54583 1.71429 3.5715 1.71429H12.4286ZM13.4286 5.43029H2.5715V12.4286C2.5715 12.9809 3.01921 13.4286 3.5715 13.4286H12.4286C12.9809 13.4286 13.4286 12.9809 13.4286 12.4286V5.43029ZM4.99937 10.0008C5.39386 10.0008 5.71366 10.3206 5.71366 10.7151C5.71366 11.1096 5.39386 11.4294 4.99937 11.4294C4.60488 11.4294 4.28508 11.1096 4.28508 10.7151C4.28508 10.3206 4.60488 10.0008 4.99937 10.0008ZM8.00193 10.0008C8.39642 10.0008 8.71622 10.3206 8.71622 10.7151C8.71622 11.1096 8.39642 11.4294 8.00193 11.4294C7.60744 11.4294 7.28765 11.1096 7.28765 10.7151C7.28765 10.3206 7.60744 10.0008 8.00193 10.0008ZM4.99937 7.14366C5.39386 7.14366 5.71366 7.46346 5.71366 7.85795C5.71366 8.25244 5.39386 8.57223 4.99937 8.57223C4.60488 8.57223 4.28508 8.25244 4.28508 7.85795C4.28508 7.46346 4.60488 7.14366 4.99937 7.14366ZM8.00193 7.14366C8.39642 7.14366 8.71622 7.46346 8.71622 7.85795C8.71622 8.25244 8.39642 8.57223 8.00193 8.57223C7.60744 8.57223 7.28765 8.25244 7.28765 7.85795C7.28765 7.46346 7.60744 7.14366 8.00193 7.14366ZM11.0045 7.14366C11.399 7.14366 11.7188 7.46346 11.7188 7.85795C11.7188 8.25244 11.399 8.57223 11.0045 8.57223C10.61 8.57223 10.2902 8.25244 10.2902 7.85795C10.2902 7.46346 10.61 7.14366 11.0045 7.14366ZM12.4286 2.57143H3.5715C3.01921 2.57143 2.5715 3.01914 2.5715 3.57143V4.57314H13.4286V3.57143C13.4286 3.01914 12.9809 2.57143 12.4286 2.57143Z" fill="#212121" fill-opacity="0.8"/>
</svg>
