<svg width="18" height="18" viewBox="0 0 18 18" fill="none" xmlns="http://www.w3.org/2000/svg">
<path d="M9 2.71875C10.1632 2.71875 11.1112 3.63976 11.1547 4.79229L11.1562 4.875H13.875C14.1339 4.875 14.3437 5.08487 14.3437 5.34375C14.3437 5.58645 14.1593 5.78608 13.9229 5.81008L13.875 5.8125H13.4659L12.8272 14.2762C12.7644 15.1075 12.0716 15.75 11.238 15.75H6.76204C5.92837 15.75 5.23555 15.1075 5.17281 14.2762L4.53375 5.8125H4.125C3.8823 5.8125 3.68267 5.62805 3.65867 5.39168L3.65625 5.34375C3.65625 5.10105 3.8407 4.90142 4.07707 4.87742L4.125 4.875H6.84375C6.84375 3.68414 7.80914 2.71875 9 2.71875ZM12.5258 5.8125H5.47421L6.10765 14.2056C6.13349 14.5479 6.41876 14.8125 6.76204 14.8125H11.238C11.5812 14.8125 11.8665 14.5479 11.8923 14.2056L12.5258 5.8125ZM10.2187 7.78125C10.4615 7.78125 10.6611 7.9657 10.6851 8.20207L10.6875 8.25V12.375C10.6875 12.6339 10.4776 12.8437 10.2187 12.8437C9.97605 12.8437 9.77642 12.6593 9.75242 12.4229L9.75 12.375V8.25C9.75 7.99112 9.95987 7.78125 10.2187 7.78125ZM7.78125 7.78125C8.02395 7.78125 8.22357 7.9657 8.24758 8.20207L8.25 8.25V12.375C8.25 12.6339 8.04013 12.8437 7.78125 12.8437C7.53855 12.8437 7.33892 12.6593 7.31492 12.4229L7.3125 12.375V8.25C7.3125 7.99112 7.52237 7.78125 7.78125 7.78125ZM9 3.65625C8.35011 3.65625 7.81903 4.16492 7.78318 4.80584L7.78125 4.875H10.2187C10.2187 4.2019 9.6731 3.65625 9 3.65625Z" fill="#212121" fill-opacity="0.8"/>
</svg>
