<svg width="16" height="16" viewBox="0 0 16 16" fill="none" xmlns="http://www.w3.org/2000/svg">
<path d="M8.83325 12C9.10939 12 9.33325 12.2239 9.33325 12.5C9.33325 12.7761 9.10939 13 8.83325 13H1.83325C1.55711 13 1.33325 12.7761 1.33325 12.5C1.33325 12.2239 1.55711 12 1.83325 12H8.83325ZM14.1666 7.66667C14.4427 7.66667 14.6666 7.89053 14.6666 8.16667C14.6666 8.41979 14.4785 8.62899 14.2344 8.6621L14.1666 8.66667H1.83325C1.55711 8.66667 1.33325 8.4428 1.33325 8.16667C1.33325 7.91354 1.52136 7.70434 1.76541 7.67123L1.83325 7.66667H14.1666ZM12.1666 3.33333C12.4427 3.33333 12.6666 3.55719 12.6666 3.83333C12.6666 4.10947 12.4427 4.33333 12.1666 4.33333H1.83325C1.55711 4.33333 1.33325 4.10947 1.33325 3.83333C1.33325 3.55719 1.55711 3.33333 1.83325 3.33333H12.1666Z" fill="#212121"/>
</svg>
