<svg width="18" height="18" viewBox="0 0 18 18" fill="none" xmlns="http://www.w3.org/2000/svg">
<path d="M15.7726 2.22725C16.8207 3.27535 16.8207 4.97465 15.7726 6.02275L6.79639 14.999C6.58874 15.2066 6.33048 15.3565 6.04716 15.4338L2.21039 16.4802C1.79049 16.5947 1.40519 16.2094 1.51971 15.7895L2.5661 11.9527C2.64337 11.6694 2.79324 11.4112 3.0009 11.2035L11.9771 2.22725C13.0252 1.17915 14.7245 1.17915 15.7726 2.22725ZM11.25 4.54543L3.79639 11.999C3.72717 12.0682 3.67722 12.1543 3.65146 12.2487L2.86407 15.1358L5.75115 14.3484C5.84559 14.3227 5.93168 14.2727 6.0009 14.2035L13.4543 6.74968L11.25 4.54543ZM12.7726 3.02275L12.045 3.74968L14.2493 5.95468L14.9771 5.22725C15.5859 4.61849 15.5859 3.6315 14.9771 3.02275C14.3684 2.41399 13.3814 2.41399 12.7726 3.02275Z" fill="#212121" fill-opacity="0.8"/>
</svg>
