<svg width="16" height="16" viewBox="0 0 16 16" fill="none" xmlns="http://www.w3.org/2000/svg">
<path d="M7.9999 1.28571C11.0769 1.28571 13.5713 3.78013 13.5713 6.85714C13.5713 9.21122 11.9173 11.7767 8.65144 14.5816C8.27669 14.9035 7.72308 14.9035 7.34685 14.5803L7.13099 14.3932C4.00968 11.6622 2.42847 9.15875 2.42847 6.85714C2.42847 3.78013 4.92288 1.28571 7.9999 1.28571ZM7.9999 2.14286C5.39627 2.14286 3.28561 4.25351 3.28561 6.85714C3.28561 8.85832 4.74184 11.1639 7.69392 13.7468L7.9068 13.9314C7.96034 13.9774 8.03943 13.9774 8.09297 13.9314C11.1879 11.2733 12.7142 8.90591 12.7142 6.85714C12.7142 4.25351 10.6035 2.14286 7.9999 2.14286ZM7.9999 4.71428C9.18336 4.71428 10.1428 5.67367 10.1428 6.85714C10.1428 8.04061 9.18336 9 7.9999 9C6.81643 9 5.85704 8.04061 5.85704 6.85714C5.85704 5.67367 6.81643 4.71428 7.9999 4.71428ZM7.9999 5.57143C7.28981 5.57143 6.71418 6.14706 6.71418 6.85714C6.71418 7.56722 7.28981 8.14286 7.9999 8.14286C8.70998 8.14286 9.28561 7.56722 9.28561 6.85714C9.28561 6.14706 8.70998 5.57143 7.9999 5.57143Z" fill="#212121" fill-opacity="0.8"/>
</svg>
