<svg width="112" height="39" viewBox="0 0 112 39" fill="none" xmlns="http://www.w3.org/2000/svg">
<path d="M23.156 2.76699C24.9883 2.76699 26.4743 3.71359 27.1235 5.30097C28.018 7.48544 27.0803 10.2961 24.6132 12.7864C21.9297 15.4951 18.0343 17.3447 16.5915 17.9709C16.7791 18.0728 16.9811 18.1748 17.1686 18.2767C17.991 18.7282 18.8133 19.1651 19.6069 19.6019C21.6123 18.5825 24.3823 16.9369 26.5609 14.7379C29.8503 11.4175 31.0045 7.5 29.6628 4.23786C28.5951 1.61651 26.0992 0 23.156 0H16.5194V2.76699H23.156Z" fill="url(#paint0_linear_13_2060)"/>
<path d="M9.86835 36.233C8.03607 36.233 6.55005 35.2864 5.90081 33.7136C5.00631 31.5146 5.9441 28.7185 8.41118 26.2282C11.1091 23.5194 15.0045 21.6699 16.4473 21.0291C16.2597 20.9272 16.0577 20.8253 15.8702 20.7233C15.0478 20.2719 14.2254 19.835 13.4319 19.3981C11.4265 20.4175 8.65645 22.0631 6.47791 24.2622C3.18846 27.5825 2.03427 31.5 3.37602 34.7767C4.44365 37.3981 6.93959 39.0146 9.88278 39.0146H16.5194V36.2476H9.86835V36.233Z" fill="url(#paint1_linear_13_2060)"/>
<path d="M8.23805 0C3.69342 0 0 3.72816 0 8.31553V30.6845C0 35.2718 3.69342 39 8.23805 39H9.86835C6.92516 39 4.44364 37.3689 3.36159 34.7621C2.95762 33.7718 2.78449 32.7233 2.82777 31.6602C2.77006 31.3398 2.74121 31.0194 2.74121 30.6845V8.31553C2.74121 5.25728 5.2083 2.76699 8.23805 2.76699H16.5194V0H8.23805Z" fill="url(#paint2_linear_13_2060)"/>
<path d="M26.5609 24.2621C24.6276 22.3107 21.0063 20.3592 17.1686 18.2767C13.6772 16.3981 10.0703 14.4466 8.42561 12.7719C5.9441 10.2816 5.00631 7.48545 5.91524 5.30098C6.56447 3.7136 8.03607 2.767 9.86835 2.767H8.23805C5.54013 2.767 3.28945 4.73302 2.82777 7.32525C2.92877 9.80098 4.18395 12.4223 6.47791 14.7379C8.41118 16.6893 12.0325 18.6553 15.8702 20.7233C19.3616 22.602 22.9684 24.5534 24.6132 26.2282C27.0803 28.7185 28.018 31.5146 27.1235 33.7136C26.4743 35.301 24.9883 36.233 23.156 36.233H16.5194V39H23.156C26.0992 39 28.5807 37.3689 29.6628 34.7621C31.0045 31.5 29.8359 27.5825 26.5609 24.2621Z" fill="url(#paint3_linear_13_2060)"/>
<path d="M52.8476 21.9175C52.8476 26.767 49.6447 29.7524 44.8404 29.7524C42.5753 29.7524 40.5555 29.2718 38.7665 28.3544V9.21845C39.3724 9.13107 39.9207 9.07281 40.4833 9.07281C41.046 9.07281 41.6375 9.13107 42.1713 9.21845V15.1019C43.0514 14.6796 44.0757 14.432 45.2877 14.432C49.6159 14.4466 52.8476 17.1845 52.8476 21.9175ZM49.4139 22.0631C49.4139 19.4417 47.8413 17.5485 45.0568 17.5485C43.9748 17.5485 43.0081 17.767 42.1858 18.1893V26.1845C43.1235 26.5485 44.0325 26.7087 44.9991 26.7087C47.8124 26.6942 49.4139 24.9029 49.4139 22.0631Z" fill="white"/>
<path d="M65.7169 28.1651C64.8368 28.9223 63.3941 29.7233 61.4319 29.7233C58.3445 29.7233 56.0794 28.3252 56.0794 24.8447V17.7087H53.6267C53.5401 17.2573 53.5113 16.7913 53.5113 16.2816C53.5113 15.8301 53.5401 15.3641 53.6267 14.9126H56.0794V11.2136C56.6565 11.0971 57.2336 11.068 57.7962 11.068C58.3589 11.068 58.9216 11.0971 59.4554 11.2136V14.8981H64.8079C64.9234 15.3495 64.9522 15.8155 64.9522 16.267C64.9522 16.7913 64.9234 17.2136 64.8079 17.6942H59.4554V24.0291C59.4554 26.1699 60.4509 26.7087 61.8792 26.7087C62.9035 26.7087 63.8124 26.1553 64.2597 25.733C64.9955 26.2427 65.6014 27.2184 65.7169 28.1651Z" fill="white"/>
<path d="M66.6114 11.0534C66.6114 9.8301 67.6069 8.85437 68.8476 8.85437C70.0307 8.85437 71.0262 9.8301 71.0262 11.0534C71.0262 12.2767 70.0307 13.2524 68.8476 13.2524C67.6069 13.2524 66.6114 12.2767 66.6114 11.0534ZM67.1163 29.2864V14.8981C67.6934 14.7816 68.2705 14.7524 68.8332 14.7524C69.3814 14.7524 69.9874 14.7816 70.5212 14.8981V29.2864C69.9729 29.4029 69.3959 29.432 68.8332 29.432C68.2994 29.4466 67.6934 29.4175 67.1163 29.2864Z" fill="white"/>
<path d="M96.0721 20.1117V29.2864C95.5239 29.4029 94.918 29.4321 94.3841 29.4321C93.7782 29.4321 93.2011 29.4029 92.6673 29.2864V21.1456C92.6673 19.0777 91.7584 17.5777 89.4355 17.5777C88.0794 17.5777 87.1127 18.1602 86.3769 18.7427C86.4635 19.1942 86.5356 19.6602 86.5356 20.1117V29.2864C85.9874 29.4029 85.3814 29.4321 84.8476 29.4321C84.2417 29.4321 83.6646 29.4029 83.1019 29.2864V21.1456C83.1019 19.0777 82.2218 17.5777 79.899 17.5777C78.7737 17.5777 77.7205 17.9126 76.9703 18.3641V29.2864C76.422 29.4029 75.8161 29.4321 75.2534 29.4321C74.7051 29.4321 74.128 29.4029 73.5654 29.2864V16.6893C74.7196 15.6845 77.3165 14.4029 80.303 14.4029C82.3517 14.4029 83.9243 15.0437 84.9919 16.0777C86.1749 15.1602 87.9207 14.4029 89.8539 14.4029C93.9513 14.4029 96.0721 16.966 96.0721 20.1117Z" fill="white"/>
<path d="M111.87 23.0097H101.742C102.016 25.3835 103.459 26.8544 105.854 26.8544C107.931 26.8544 109.143 26.0243 110.081 25.3544C110.831 25.835 111.437 26.8107 111.567 27.699C110.355 28.6748 108.48 29.7379 105.623 29.7379C101.338 29.7379 98.2507 26.8689 98.2507 22.1505C98.2507 17.665 101.367 14.432 105.436 14.432C109.273 14.432 111.986 17.0825 111.986 20.9563C112 21.7282 111.971 22.2233 111.87 23.0097ZM108.638 20.7233C108.638 19.0194 107.758 17.2718 105.436 17.2427C103.315 17.2427 102.016 18.7427 101.785 20.7233H108.638Z" fill="white"/>
<defs>
<linearGradient id="paint0_linear_13_2060" x1="23.3615" y1="19.6092" x2="23.3615" y2="2.99316" gradientUnits="userSpaceOnUse">
<stop stop-color="white" stop-opacity="0.2"/>
<stop offset="1" stop-color="white"/>
</linearGradient>
<linearGradient id="paint1_linear_13_2060" x1="9.6715" y1="19.3966" x2="9.6715" y2="36.1639" gradientUnits="userSpaceOnUse">
<stop stop-color="white" stop-opacity="0.2"/>
<stop offset="1" stop-color="white"/>
</linearGradient>
<linearGradient id="paint2_linear_13_2060" x1="8.25825" y1="39.0058" x2="8.25825" y2="2.84878" gradientUnits="userSpaceOnUse">
<stop stop-color="white" stop-opacity="0.2"/>
<stop offset="1" stop-color="white"/>
</linearGradient>
<linearGradient id="paint3_linear_13_2060" x1="16.52" y1="2.77137" x2="16.52" y2="36.1572" gradientUnits="userSpaceOnUse">
<stop stop-color="white" stop-opacity="0.2"/>
<stop offset="1" stop-color="white"/>
</linearGradient>
</defs>
</svg>
